<?xml version="1.0" ?><!DOCTYPE svg  PUBLIC '-//W3C//DTD SVG 1.0//EN'  'http://www.w3.org/TR/2001/REC-SVG-20010904/DTD/svg10.dtd'><svg height="32px" style="shape-rendering:geometricPrecision; text-rendering:geometricPrecision; image-rendering:optimizeQuality; fill-rule:evenodd; clip-rule:evenodd" version="1.0" viewBox="0 0 13838 6857" width="64px" xml:space="preserve" xmlns="http://www.w3.org/2000/svg" xmlns:xlink="http://www.w3.org/1999/xlink"><defs><style type="text/css">
   <![CDATA[
    .fil0 {fill:#27afb7;fill-rule:nonzero}
   ]]>
  </style></defs><g id="Layer_x0020_1"><path class="fil0" d="M1946 850l1702 24 840 -212c18,-4 35,-6 52,-6l0 -1 1693 0 525 -583 65 -72 96 0 1730 0 56 0 52 30 1464 845 1672 -9 0 -15 0 -216 216 0 1514 0 216 0 0 216 0 3493 0 216 -216 0 -1514 0 -216 0 0 -216 0 -199 -1013 0 -1091 515 329 345c82,86 78,223 -8,305 -21,20 -44,34 -69,44l-3582 1488c-81,34 -172,14 -232,-44l-3065 -2655 -1215 -22 0 223 0 216 -216 0 -1514 0 -216 0 0 -216 0 -3493 0 -216 216 0 1514 0 216 0 0 216 0 0zm11244 2393l0 433 -433 0 0 -433 433 0zm-12109 0l0 433 -433 0 0 -433 433 0zm10811 -1948l-1729 9 -58 0 -50 -29 -1462 -844 -1578 0 -514 571 -1 1 -3 4 -17 19 -1541 1712c-26,65 -20,142 10,213 27,64 74,125 134,173 61,48 135,84 217,96 140,22 309,-20 488,-164l13 -9 1340 -927 152 -105 127 135 2056 2179 1265 -597 45 -21 47 0 1060 0 0 -2416zm1514 -230l-1081 0 0 3060 1081 0 0 -3060zm-7309 4272c-89,-79 -97,-215 -19,-304 79,-89 215,-97 304,-19l1068 946 395 -164 -918 -814c-89,-79 -97,-215 -19,-304 79,-89 215,-97 304,-19l1075 953 432 -179 -879 -779c-89,-79 -97,-215 -19,-304 79,-89 215,-97 304,-19l1036 918 426 -177 -211 -221 -1 1 -107 -113 -1 -1 -3 -3 -4 -4 -2030 -2151 -1178 815c-283,227 -572,290 -821,251 -161,-25 -304,-92 -419,-184 -116,-92 -207,-212 -262,-341 -82,-193 -87,-411 14,-603l13 -25 18 -19 1248 -1386 -1278 0 -838 211 0 -1c-17,4 -36,7 -55,6l-1727 -24 0 2409 1301 23 13 1 7 1 12 2 6 1 7 2 5 1 26 9 4 2c20,8 39,20 56,35l3031 2626 592 -246 -911 -807zm-4584 -4272l-1081 0 0 3060 1081 0 0 -3060z"/></g></svg>