<?xml version="1.0" ?><svg xmlns="http://www.w3.org/2000/svg" id="Agreement" viewBox="0 0 64 64"><path d="M45.74468994,33.48846436l-.74468994-.68084717-2.6192627,1.04766846c-1.53723145.61486816-3.24261475.66497803-4.81329346.14141846l-2.95166016-.98382568c-.40783691-.13598633-.83496094-.20526123-1.26489258-.20526123h-3.21014404c-1.33740234,0-2.58636475.668396-3.32818604,1.78118896l-4.81256104,7.21881104,1.39154053.8348999c2.08544922,1.25128174,4.76885986.82043457,6.35778809-1.02081299l1.71508789-1.98736572c.64953613-.75262451,1.7532959-.91394043,2.59106445-.37860107l4.87426758,3.11462402-.9588623,14.95178223,9.02911377-4.51452637,6-7-7.25531006-12.31915283Z" style="fill:#f9d9d2; stroke-width:0px;"/><path d="M44.42999268,45.89001465l-15.75-10.07000732-5.97998047-1.36999512-3.70001221-.96002197-8.16998291,13.21002197,7.33996582,7.08996582,15.13000488,8.86999512c1.11999512.66003418,2.55999756.33001709,3.29003906-.73999023l.09997559-.14001465c.77996826-1.14996338.46002197-2.70996094-.70001221-3.45996094l.10003662.05999756c1.11999512.72998047,2.61999512.41998291,3.37994385-.67999268l.0300293-.05004883c.74890137-1.10406494.47503662-2.57849121-.58276367-3.35876465,1.11584473.69396973,2.61236572.36474609,3.3527832-.72119141l.07000732-.10003662c.7699585-1.13000488.47998047-2.65997314-.65002441-3.42999268,1.13000488.76000977,2.69000244.44000244,3.45001221-.69000244.28997803-.41998291.42999268-.89996338.42999268-1.38000488,0-.80999756-.40002441-1.60998535-1.14001465-2.07995605Z" style="fill:#ffeae3; stroke-width:0px;"/><path d="M42.3807373,33.85528564c-1.53723145.61486816-3.24261475.66497803-4.81329346.14141846l-2.95166016-.98382568c-.40783691-.13598633-.83496094-.20526123-1.26489258-.20526123h-3.21014404c-1.33740234,0-2.58636475.668396-3.32818604,1.78118896l-4.81256104,7.21881104,1.39154053.8348999c2.08544922,1.25128174,4.76885986.82043457,6.35778809-1.02081299l1.71508789-1.98736572c.64953613-.75262451,1.7532959-.91394043,2.59106445-.37860107l4.87426758,3.11462402,6.07025146-9.56274414-2.6192627,1.04766846Z" style="fill:#f9d9d2; stroke-width:0px;"/><polygon points="1 41.80761719 12 25.80761719 21 31.80761719 10 47.80761719 1 41.80761719" style="fill:#ff6c9d; stroke-width:0px;"/><path d="M54.00097656,47.80761719,43,31.80761719l9-6,11,16-9,6-11-16Z" style="fill:#64c4ff; stroke-width:0px;"/><path d="M29.56738281,24.75585938l-.25878906-.05957031c-5.39355469-1.23632812-9.30859375-6.15527344-9.30859375-11.69628906,0-6.6171875,5.3828125-12,12-12s12,5.3828125,12,12c0,5.54101562-3.91503906,10.45996094-9.30859375,11.69628906l-.25878906.05957031-2.43261719,2.24316406-2.43261719-2.24316406Z" style="fill:#68ddc1; stroke-width:0px;"/><path d="M29.08496094,25.67089844l2.23730469,2.06347656c.19140625.17675781.43457031.26464844.67773438.26464844s.48632812-.08789062.67773438-.26464844l2.23730469-2.06347656c5.86035156-1.34277344,10.08496094-6.62695312,10.08496094-12.67089844,0-7.16796875-5.83203125-13-13-13s-13,5.83203125-13,13c0,6.04394531,4.22460938,11.328125,10.08496094,12.67089844ZM32,2c6.06542969,0,11,4.93457031,11,11,0,5.19433594-3.68652344,9.72460938-8.765625,10.77246094-.17773438.03710938-.34179688.12109375-.47558594.24414062l-1.75878906,1.62207031-1.75878906-1.62207031c-.13378906-.12304688-.29785156-.20703125-.47558594-.24414062-5.07910156-1.04785156-8.765625-5.578125-8.765625-10.77246094,0-6.06542969,4.93457031-11,11-11Z" style="fill:#393e4c; stroke-width:0px;"/><path d="M30.375,17.78125c.18457031.14648438.40527344.21875.625.21875.27832031,0,.55566406-.11621094.75292969-.34179688l7-8c.36328125-.41503906.32128906-1.046875-.09472656-1.41113281-.4140625-.36328125-1.046875-.32324219-1.41113281.09472656l-6.36914062,7.27929688-4.25292969-3.40234375c-.43164062-.34472656-1.06054688-.27246094-1.40625.15625-.34472656.43164062-.27441406,1.06054688.15625,1.40625l5,4Z" style="fill:#4cc1a5; stroke-width:0px;"/><circle cx="9" cy="42" r="1" style="fill:#f45687; stroke-width:0px;"/><path d="M63.82421875,41.24121094l-11-16c-.31054688-.45117188-.92578125-.56835938-1.37890625-.265625l-9,6c-.22265625.1484375-.37695312.37988281-.42773438.64257812-.04980469.26367188.00683594.53515625.15820312.75585938l.26403809.3840332-.42810059.17260742c-1.31933594.52246094-2.78417969.56542969-4.12304688.12109375l-2.96679688-.99511719c-.51757812-.1640625-1.04589844-.24707031-1.57226562-.24707031h-3.20996094c-1.67675781,0-3.23242188.83203125-4.16601562,2.23144531l-.07891846.12011719-2.94451904-.67871094-1.60308838-.41442871.47711182-.69396973c.15136719-.22070312.20800781-.4921875.15820312-.75585938-.05078125-.26269531-.20507812-.49414062-.42773438-.64257812l-9-6c-.45410156-.30273438-1.06835938-.18554688-1.37890625.265625L.17578125,41.24121094c-.15136719.22070312-.20800781.4921875-.15820312.75585938.05078125.26269531.20507812.49414062.42773438.64257812l9,6c.16992188.11328125.36328125.16796875.55371094.16796875.31835938,0,.63085938-.15136719.82519531-.43359375l.1194458-.17370605,6.53192139,6.30944824c.05664062.0546875.12011719.10253906.18847656.14257812l15.12792969,8.86914062c.54882812.32324219,1.15429688.47753906,1.75390625.47753906,1.11035156,0,2.19824219-.53027344,2.85546875-1.49511719.66834553-.9301142.83404831-1.87506184.64587402-2.80029297.88519287-.16546631,1.71258545-.66217041,2.27697754-1.49169922.2522583-.37121582.42132568-.77941895.51519775-1.20343018l6.60784912-3.30438232c.11914062-.05957031.22558594-.14257812.3125-.24414062l4.94415283-5.7722168.47186279.6862793c.19433594.28222656.50683594.43359375.82519531.43359375.19042969,0,.38378906-.0546875.55371094-.16796875l9-6c.22265625-.1484375.37695312-.37988281.42773438-.64257812.04980469-.26367188-.00683594-.53515625-.15820312-.75585938ZM2.3984375,41.53808594l9.8671875-14.3515625,7.3359375,4.890625-9.8671875,14.3515625-7.3359375-4.890625ZM36.62890625,57.54101562l-7.09570312-4.58300781c-.46484375-.29980469-1.08300781-.16699219-1.3828125.296875-.07537842.11663818-.12298584.24310303-.14526367.37182617-.06744385.38409424.09417725.78808594.44213867,1.01293945l7,4.52050781c.35334322.22832998,1.12783805,1.06853639.31640625,2.19628906-.43457031.63964844-1.29492188.83105469-1.95800781.44140625l-15.02734375-8.81054688-6.67382812-6.44628906.17578125-.28417969c.00030518-.00048828.00024414-.0010376.00054932-.00152588l7.86090088-11.43408203,2.3338623.60357666,2.23120117.51483154-3.53881836,5.31622314c-.15234375.22753906-.20410156.5078125-.14355469.77441406s.22753906.49707031.46289062.63769531l1.38964844.83007812c.96386719.57617188,2.03027344.85546875,3.08789062.85546875,1.6953125,0,3.36621094-.71875,4.54394531-2.08203125l1.70703125-1.98632812c.32421875-.375.88671875-.453125,1.30566406-.18261719l10.37207031,6.63085938c.42382812.26953125.67675781.73144531.67675781,1.23632812,0,.29101562-.08789062.57128906-.26074219.82226562-.21875.32519531-.54980469.54589844-.93359375.62011719-.38671875.07617188-.7734375-.00390625-1.09667969-.22167969l-7.33636475-4.95245361-.54058838-.36785889c-.45605469-.31054688-1.07714844-.19140625-1.38964844.26464844-.07879639.11572266-.12890625.24212646-.15393066.37139893-.00866699.04406738.00213623.0880127-.00054932.13244629-.00469971.08294678-.01580811.1661377-.00018311.24731445.04785156.25299072.1918335.48760986.42224121.64337158l.52069092.35144043,7.32598877,4.98547363c.66894531.45507812.84375,1.37011719.38671875,2.04101562l-.06640625.09765625c-.453125.6640625-1.33496094.84277344-2.00878906.40722656l-.10064697-.06488037c-.00067139-.00042725-.0012207-.00109863-.00189209-.00152588l-6.88378906-4.43847656c-.46484375-.29785156-1.08300781-.16601562-1.3828125.29882812-.29882812.46386719-.16503906,1.08300781.29882812,1.3828125l6.88470459,4.43933105c.65548247.42187587.91843359,1.32193223.38580322,2.10461426-.45214844.6640625-1.33789062.84277344-2.00976562.40820312ZM46.37207031,52.00585938l-2.88891602,1.44445801c.28643799-.66461182.34924316-1.38616943.20880127-2.06860352.02294922-.00402832.04589844-.00219727.06878662-.00671387.90820312-.17773438,1.69238281-.69921875,2.20214844-1.45703125.39746094-.57617188.60742188-1.24902344.60742188-1.94824219,0-1.19238281-.59960938-2.28515625-1.6015625-2.92285156l-5.49188232-3.51080322c-.00366211-.00238037-.00537109-.00634766-.00909424-.00872803l-4.73809814-3.02593994-.13201904-.08441162c-.0010376-.00067139-.00219727-.00061035-.00323486-.0012207-1.24841309-.7991333-2.91918945-.56048584-3.89324951.56274414l-1.70800781,1.98730469c-1.2734375,1.47460938-3.41308594,1.81738281-5.09082031.81542969l-.48828125-.29199219,3.69042969-5.54394531c.02929688-.03320312.05664062-.06835938.08105469-.10644531l.45605469-.69433594c.55761719-.8359375,1.49121094-1.33496094,2.49804688-1.33496094h3.20996094c.32128906,0,.64648438.05175781.95214844.1484375l2.95410156.99121094c1.78710938.59082031,3.73632812.53515625,5.49804688-.16113281l.84692383-.34124756,7.93048096,11.53521729-5.15924072,6.02380371ZM54.265625,46.42871094l-9.8671875-14.3515625,7.3359375-4.890625,9.8671875,14.3515625-7.3359375,4.890625Z" style="fill:#393e4c; stroke-width:0px;"/><circle cx="55" cy="42" r="1" style="fill:#45a9f4; stroke-width:0px;"/></svg>