<svg width="160" height="68" viewBox="0 0 160 68" fill="none" xmlns="http://www.w3.org/2000/svg">
<path fill-rule="evenodd" clip-rule="evenodd" d="M98.3548 2.55683L83.3294 34.7079L68.4399 2.84726L53.2188 35.4237L37.9953 67.9964H64.8623L75.7671 44.4551L78.1529 45.719L74.6894 53.1975L67.907 67.7072H67.9694L67.8318 67.9964H95.8905L111.115 35.4237L112.411 32.6408L98.3548 2.55683ZM31.9658 0C43.3565 0 53.3847 6.42852 59.0482 16.0603L50.0012 35.42L34.7776 67.994L33.3506 68C15.3094 67.9988 0 55.0349 0 34.1769C0 15.3531 14.3577 0 31.9658 0ZM129.553 2.84848L114.331 35.4224L99.1087 67.9964H122.938L130.897 50.9213L133.28 52.1937L125.913 67.9964H160L144.776 35.4237L142.898 31.4025L135.853 46.2403L133.476 44.9498L141.416 28.2307L129.553 2.84726V2.84848Z" fill="white"/>
</svg>
